<svg width="64" height="100" viewBox="0 0 64 100" fill="none" xmlns="http://www.w3.org/2000/svg">
<path d="M16 48H44C46.2091 48 48 49.7909 48 52V72H12V52C12 49.7909 13.7909 48 16 48Z" fill="#8ABD37"/>
<mask id="mask0_2_7551" style="mask-type:alpha" maskUnits="userSpaceOnUse" x="12" y="48" width="36" height="24">
<path fill-rule="evenodd" clip-rule="evenodd" d="M16 48H44C46.2091 48 48 49.7909 48 52V72H12V52C12 49.7909 13.7909 48 16 48Z" fill="white"/>
</mask>
<g mask="url(#mask0_2_7551)">
<rect x="30" y="48" width="18" height="33" fill="#D0E5AF"/>
</g>
<rect x="12" y="78" width="4" height="9" rx="2" fill="#387002"/>
<rect x="44" y="78" width="4" height="9" rx="2" fill="#387002"/>
<path d="M48 59C50.2091 59 52 60.7909 52 63V77C52 79.2091 50.2091 81 48 81C47.9184 81 47.8375 80.9976 47.7571 80.9927C47.6726 80.9976 47.5866 81 47.5 81H12.5C12.4134 81 12.3274 80.9976 12.2421 80.9927C12.1625 80.9976 12.0816 81 12 81C9.79086 81 8 79.2091 8 77V63C8 60.7909 9.79086 59 12 59C14.2091 59 16 60.7909 16 63V72H44V63C44 60.7909 45.7909 59 48 59Z" fill="#689F38"/>
<mask id="mask1_2_7551" style="mask-type:alpha" maskUnits="userSpaceOnUse" x="8" y="59" width="44" height="22">
<path fill-rule="evenodd" clip-rule="evenodd" d="M48 59C50.2091 59 52 60.7909 52 63V77C52 79.2091 50.2091 81 48 81C47.9184 81 47.8375 80.9976 47.7571 80.9927C47.6726 80.9976 47.5866 81 47.5 81H12.5C12.4134 81 12.3274 80.9976 12.2421 80.9927C12.1625 80.9976 12.0816 81 12 81C9.79086 81 8 79.2091 8 77V63C8 60.7909 9.79086 59 12 59C14.2091 59 16 60.7909 16 63V72H44V63C44 60.7909 45.7909 59 48 59Z" fill="white"/>
</mask>
<g mask="url(#mask1_2_7551)">
<path d="M30 59H52V81H39C34.0294 81 30 76.9706 30 72V59Z" fill="#8ABD37"/>
</g>
<path d="M46 95.5C46 97.4325 39.0605 99 30.5 99C21.94 99 15 97.4325 15 95.5C15 93.5675 21.94 92 30.5 92C39.0605 92 46 93.5675 46 95.5Z" fill="#E8F2D7"/>
<path d="M59.0001 36.5C60.2904 36.5 60.9587 38.0062 60.1528 38.9606L60.0607 39.0607L55.6201 43.5H59.0001C59.7798 43.5 60.4205 44.0949 60.4932 44.8555L60.5001 45C60.5001 45.7797 59.9052 46.4204 59.1445 46.4931L59.0001 46.5H52.0001C50.7098 46.5 50.0414 44.9938 50.8474 44.0394L50.9394 43.9393L55.3791 39.5H52.0001C51.2204 39.5 50.5796 38.9051 50.5069 38.1445L50.5001 38C50.5001 37.2203 51.095 36.5796 51.8556 36.5069L52.0001 36.5H59.0001Z" fill="#F5A623"/>
</svg>
